<svg width="32" height="32" viewBox="0 0 32 32" fill="none" xmlns="http://www.w3.org/2000/svg">
<path fill-rule="evenodd" clip-rule="evenodd" d="M7.23658 0.015017C6.23838 0.0692971 5.25815 0.323598 4.34092 0.766258C3.57532 1.13575 2.92206 1.59479 2.31275 2.19146C1.89438 2.60113 1.61132 2.93894 1.30409 3.39512C0.586508 4.46066 0.166572 5.63479 0.0296514 6.9585C0.00142523 7.23129 0 7.66861 0 16.0161C0 24.3636 0.00142523 24.8009 0.0296514 25.0737C0.195372 26.6758 0.781143 28.0675 1.81165 29.3077C1.98723 29.519 2.50876 30.0403 2.71941 30.2151C3.3859 30.7682 4.08107 31.1836 4.84088 31.4828C5.44238 31.7196 5.93576 31.8486 6.68386 31.9647C6.85177 31.9907 7.4795 31.993 15.8905 31.9983C22.6335 32.0025 24.9688 31.9992 25.1218 31.985C26.9309 31.8176 28.7319 30.9221 29.9738 29.5723C31.1074 28.3403 31.7896 26.8502 31.9771 25.1965C32.0005 24.9893 32.0026 24.0952 31.9981 15.9178C31.9934 7.34869 31.9916 6.85798 31.964 6.67186C31.8888 6.16367 31.7568 5.61009 31.6087 5.18137C31.0154 3.46434 29.8344 2.01205 28.2753 1.08236C27.2063 0.444835 26.0215 0.0863313 24.745 0.0140998C24.4024 -0.00527658 7.59379 -0.0044085 7.23658 0.015017ZM17.5779 4.06688C18.1131 4.11562 18.553 4.18289 19.0359 4.28983C22.2067 4.992 24.9187 7.0513 26.4439 9.91491C26.866 10.7074 27.1894 11.5474 27.4077 12.4179C27.4979 12.7781 27.5998 13.2819 27.6211 13.4733L27.6325 13.5757L25.4969 13.5716L23.3613 13.5674L23.3081 13.3709C22.9911 12.1992 22.4157 11.1836 21.5833 10.3265C19.8617 8.55388 17.3338 7.84362 14.9234 8.45531C14.3297 8.60598 13.6406 8.89284 13.1138 9.20858L12.909 9.33133L12.9048 7.01885C12.9025 5.74699 12.9039 4.6976 12.908 4.68686C12.9245 4.64349 13.7459 4.40049 14.2488 4.29017C14.8821 4.15128 15.3447 4.08984 16.1608 4.03622C16.3669 4.02267 17.3187 4.04326 17.5779 4.06688ZM9.72272 11.6893C9.72272 14.5615 9.72763 18.0625 9.73363 19.4694L9.74452 22.0272H12.6497H15.5548L15.5507 24.1278L15.5465 26.2284H10.5418H5.53712L5.5321 20.6432C5.52689 14.8387 5.52858 14.6622 5.59568 14.0016C5.85358 11.4627 6.97652 9.10097 8.78894 7.28565C9.11893 6.95516 9.66739 6.46713 9.70886 6.46713C9.71647 6.46713 9.72272 8.81711 9.72272 11.6893ZM27.6282 16.7659C27.6282 16.8053 27.537 17.2906 27.4874 17.5148C26.9201 20.0804 25.4551 22.3739 23.3689 23.9626C22.3773 24.7178 21.2908 25.2888 20.1076 25.6767C19.648 25.8274 18.889 26.0237 18.7659 26.0237C18.7329 26.0237 18.7328 26.0188 18.7328 23.8638V21.7039L18.9089 21.6417C20.6142 21.039 22.0069 19.8158 22.8094 18.2161C22.9866 17.8631 23.1915 17.3215 23.2963 16.9292L23.3434 16.7532H25.4858C26.6641 16.7532 27.6282 16.7589 27.6282 16.7659Z" fill="#205EFF"/>
</svg>
